<svg xmlns="http://www.w3.org/2000/svg" width="1500" height="820" viewBox="0 0 1500 820">
  <defs>
    <style>
      .title { font: 700 28px Arial, sans-serif; fill: #111827; }
      .host { fill: #f8fafc; stroke: #64748b; stroke-width: 3; rx: 20; ry: 20; }
      .net { fill: #eef2ff; stroke: #6366f1; stroke-width: 2; rx: 18; ry: 18; }
      .box { fill: #ffffff; stroke: #334155; stroke-width: 2; rx: 14; ry: 14; }
      .blue { fill: #dbeafe; stroke: #2563eb; stroke-width: 2; rx: 14; ry: 14; }
      .amber { fill: #fef3c7; stroke: #d97706; stroke-width: 2; rx: 14; ry: 14; }
      .zone-title { font: 700 22px Arial, sans-serif; fill: #0f172a; }
      .label { font: 700 18px Arial, sans-serif; fill: #111827; text-anchor: middle; }
      .sub { font: 14px Arial, sans-serif; fill: #334155; text-anchor: middle; }
      .arrow { stroke: #475569; stroke-width: 3; fill: none; marker-end: url(#arrowhead); }
      .dashed { stroke-dasharray: 9 7; }
      .edge-label { font: 14px Arial, sans-serif; fill: #1f2937; text-anchor: middle; }
    </style>
    <marker id="arrowhead" markerWidth="10" markerHeight="7" refX="9" refY="3.5" orient="auto">
      <polygon points="0 0, 10 3.5, 0 7" fill="#475569" />
    </marker>
  </defs>

  <text x="750" y="42" class="title" text-anchor="middle">DevinciWatch - Architecture reseau Docker (3 conteneurs)</text>

  <rect x="120" y="90" width="1260" height="620" class="host" />
  <text x="750" y="130" class="zone-title" text-anchor="middle">Docker Host</text>

  <rect x="190" y="160" width="1120" height="500" class="net" />
  <text x="750" y="195" class="zone-title" text-anchor="middle">Reseau interne : devinciwatch_net</text>

  <rect x="30" y="250" width="120" height="70" class="box" />
  <text x="90" y="282" class="label">Poste</text>
  <text x="90" y="303" class="sub">analyste</text>

  <rect x="320" y="240" width="330" height="170" class="blue" />
  <text x="485" y="275" class="label">control-server</text>
  <text x="485" y="298" class="sub">Web App + FastAPI API</text>
  <text x="485" y="323" class="sub">PostgreSQL + Redis + Celery Worker</text>
  <text x="485" y="348" class="sub">serveur unique de controle</text>

  <rect x="850" y="250" width="220" height="90" class="box" />
  <text x="960" y="285" class="label">endpoint-agent</text>
  <text x="960" y="307" class="sub">heartbeat / events</text>

  <rect x="850" y="470" width="220" height="90" class="amber" />
  <text x="960" y="505" class="label">attacker</text>
  <text x="960" y="527" class="sub">scenarios controles</text>

  <line x1="150" y1="285" x2="320" y2="285" class="arrow" />
  <text x="235" y="268" class="edge-label">HTTP / HTTPS</text>

  <line x1="850" y1="295" x2="650" y2="295" class="arrow" />
  <text x="750" y="278" class="edge-label">POST heartbeat / events</text>

  <line x1="960" y1="470" x2="960" y2="340" class="arrow dashed" />
  <text x="1045" y="405" class="edge-label">scenarios de test</text>

  <line x1="850" y1="500" x2="650" y2="330" class="arrow dashed" />
  <text x="760" y="440" class="edge-label">trafic controle</text>
</svg>
