<svg xmlns="http://www.w3.org/2000/svg" width="1400" height="760" viewBox="0 0 1400 760">
  <defs>
    <style>
      .title { font: 700 28px Arial, sans-serif; fill: #111827; }
      .zone { fill: #f8fafc; stroke: #cbd5e1; stroke-width: 2; rx: 16; ry: 16; }
      .zone-title { font: 700 20px Arial, sans-serif; fill: #0f172a; }
      .box { fill: #ffffff; stroke: #334155; stroke-width: 2; rx: 14; ry: 14; }
      .box-blue { fill: #dbeafe; stroke: #2563eb; stroke-width: 2; rx: 14; ry: 14; }
      .box-green { fill: #dcfce7; stroke: #16a34a; stroke-width: 2; rx: 14; ry: 14; }
      .box-amber { fill: #fef3c7; stroke: #d97706; stroke-width: 2; rx: 14; ry: 14; }
      .box-purple { fill: #ede9fe; stroke: #7c3aed; stroke-width: 2; rx: 14; ry: 14; }
      .label { font: 700 18px Arial, sans-serif; fill: #111827; text-anchor: middle; }
      .sub { font: 14px Arial, sans-serif; fill: #334155; text-anchor: middle; }
      .arrow { stroke: #475569; stroke-width: 3; fill: none; marker-end: url(#arrowhead); }
      .dashed { stroke-dasharray: 8 8; }
      .edge-label { font: 14px Arial, sans-serif; fill: #1f2937; text-anchor: middle; }
    </style>
    <marker id="arrowhead" markerWidth="10" markerHeight="7" refX="9" refY="3.5" orient="auto">
      <polygon points="0 0, 10 3.5, 0 7" fill="#475569" />
    </marker>
  </defs>

  <text x="700" y="42" class="title" text-anchor="middle">DevinciWatch - Architecture logicielle (mode 3 conteneurs)</text>

  <rect x="60" y="90" width="280" height="210" class="zone" />
  <text x="200" y="122" class="zone-title" text-anchor="middle">Zone utilisateur</text>
  <rect x="110" y="155" width="180" height="56" class="box" />
  <text x="200" y="188" class="label">Analyste / Admin</text>
  <rect x="90" y="230" width="220" height="56" class="box-blue" />
  <text x="200" y="263" class="label">Web App</text>

  <rect x="390" y="90" width="650" height="580" class="zone" />
  <text x="715" y="122" class="zone-title" text-anchor="middle">Zone serveur de controle</text>

  <rect x="610" y="160" width="210" height="72" class="box-blue" />
  <text x="715" y="192" class="label">Control Server</text>
  <text x="715" y="214" class="sub">conteneur principal</text>

  <rect x="430" y="300" width="190" height="84" class="box-blue" />
  <text x="525" y="335" class="label">FastAPI API</text>
  <text x="525" y="356" class="sub">auth / telemetry / alerts</text>

  <rect x="700" y="300" width="170" height="84" class="box-green" />
  <text x="785" y="335" class="label">PostgreSQL</text>
  <text x="785" y="356" class="sub">source de verite</text>

  <rect x="460" y="460" width="140" height="72" class="box-amber" />
  <text x="530" y="495" class="label">Redis</text>

  <rect x="700" y="450" width="170" height="84" class="box-purple" />
  <text x="785" y="485" class="label">Celery Worker</text>
  <text x="785" y="506" class="sub">detection / exports</text>

  <rect x="1090" y="120" width="250" height="260" class="zone" />
  <text x="1215" y="152" class="zone-title" text-anchor="middle">Zone collecte / test</text>
  <rect x="1120" y="200" width="190" height="56" class="box" />
  <text x="1215" y="233" class="label">Endpoint Agent</text>
  <rect x="1120" y="290" width="190" height="56" class="box-amber" />
  <text x="1215" y="323" class="label">Attacker</text>

  <line x1="200" y1="211" x2="200" y2="230" class="arrow" />
  <line x1="310" y1="258" x2="610" y2="196" class="arrow" />
  <text x="445" y="215" class="edge-label">REST / JWT</text>

  <line x1="715" y1="232" x2="560" y2="300" class="arrow dashed" />
  <line x1="715" y1="232" x2="785" y2="300" class="arrow dashed" />
  <line x1="715" y1="232" x2="530" y2="460" class="arrow dashed" />
  <line x1="715" y1="232" x2="785" y2="450" class="arrow dashed" />

  <line x1="1120" y1="228" x2="820" y2="196" class="arrow" />
  <text x="965" y="205" class="edge-label">heartbeat / events</text>

  <line x1="1215" y1="290" x2="1215" y2="256" class="arrow dashed" />
  <text x="1295" y="275" class="edge-label">scenarios</text>

  <line x1="600" y1="496" x2="700" y2="492" class="arrow" />
  <text x="650" y="480" class="edge-label">tasks</text>

  <line x1="700" y1="340" x2="620" y2="340" class="arrow" />
  <line x1="785" y1="450" x2="785" y2="384" class="arrow" />
  <text x="860" y="420" class="edge-label">writes / alerts</text>
</svg>
