<svg xmlns="http://www.w3.org/2000/svg" width="1500" height="920" viewBox="0 0 1500 920">
  <defs>
    <style>
      .title { font: 700 28px Arial, sans-serif; fill: #111827; }
      .actor { fill: #ffffff; stroke: #334155; stroke-width: 2; rx: 12; ry: 12; }
      .lifeline { stroke: #94a3b8; stroke-width: 2; stroke-dasharray: 8 8; }
      .msg { stroke: #475569; stroke-width: 3; fill: none; marker-end: url(#arrowhead); }
      .label { font: 700 16px Arial, sans-serif; fill: #111827; text-anchor: middle; }
      .msglabel { font: 14px Arial, sans-serif; fill: #1f2937; }
      .step { font: 700 15px Arial, sans-serif; fill: #0f172a; }
    </style>
    <marker id="arrowhead" markerWidth="10" markerHeight="7" refX="9" refY="3.5" orient="auto">
      <polygon points="0 0, 10 3.5, 0 7" fill="#475569" />
    </marker>
  </defs>

  <text x="750" y="42" class="title" text-anchor="middle">DevinciWatch - Diagramme de séquence principal</text>

  <rect x="80" y="90" width="140" height="48" class="actor"/>
  <text x="150" y="120" class="label">serveur-endpoint</text>
  <line x1="150" y1="138" x2="150" y2="850" class="lifeline"/>

  <rect x="320" y="90" width="160" height="48" class="actor"/>
  <text x="400" y="120" class="label">serveur-soc</text>
  <line x1="400" y1="138" x2="400" y2="850" class="lifeline"/>

  <rect x="580" y="90" width="140" height="48" class="actor"/>
  <text x="650" y="120" class="label">PostgreSQL</text>
  <line x1="650" y1="138" x2="650" y2="850" class="lifeline"/>

  <rect x="820" y="90" width="100" height="48" class="actor"/>
  <text x="870" y="120" class="label">Redis</text>
  <line x1="870" y1="138" x2="870" y2="850" class="lifeline"/>

  <rect x="1020" y="90" width="150" height="48" class="actor"/>
  <text x="1095" y="120" class="label">Celery Worker</text>
  <line x1="1095" y1="138" x2="1095" y2="850" class="lifeline"/>

  <rect x="1260" y="90" width="140" height="48" class="actor"/>
  <text x="1330" y="120" class="label">Web App</text>
  <line x1="1330" y1="138" x2="1330" y2="850" class="lifeline"/>

  <text x="40" y="185" class="step">1</text>
  <line x1="150" y1="180" x2="400" y2="180" class="msg"/>
  <text x="225" y="170" class="msglabel">POST /telemetry/heartbeat + auth agent</text>

  <text x="40" y="245" class="step">2</text>
  <line x1="400" y1="240" x2="650" y2="240" class="msg"/>
  <text x="470" y="230" class="msglabel">persiste heartbeat</text>

  <text x="40" y="305" class="step">3</text>
  <line x1="150" y1="300" x2="400" y2="300" class="msg"/>
  <text x="235" y="290" class="msglabel">POST /telemetry/events</text>

  <text x="40" y="365" class="step">4</text>
  <line x1="400" y1="360" x2="650" y2="360" class="msg"/>
  <text x="470" y="350" class="msglabel">persiste events</text>

  <text x="40" y="425" class="step">5</text>
  <line x1="400" y1="420" x2="870" y2="420" class="msg"/>
  <text x="560" y="410" class="msglabel">planifie tâche détection</text>

  <text x="40" y="485" class="step">6</text>
  <line x1="870" y1="480" x2="1095" y2="480" class="msg"/>
  <text x="930" y="470" class="msglabel">dispatch tâche</text>

  <text x="40" y="545" class="step">7</text>
  <line x1="1095" y1="540" x2="650" y2="540" class="msg"/>
  <text x="860" y="530" class="msglabel">met à jour assets / évalue règles / crée alertes</text>

  <text x="40" y="625" class="step">8</text>
  <line x1="1330" y1="620" x2="400" y2="620" class="msg"/>
  <text x="980" y="610" class="msglabel">GET assets / alerts / events / reports</text>

  <text x="40" y="685" class="step">9</text>
  <line x1="400" y1="680" x2="650" y2="680" class="msg"/>
  <text x="475" y="670" class="msglabel">lit données</text>

  <text x="40" y="745" class="step">10</text>
  <line x1="400" y1="740" x2="1330" y2="740" class="msg"/>
  <text x="760" y="730" class="msglabel">réponse JSON / données UI</text>

  <text x="90" y="810" class="msglabel">Le diagramme de séquence représente le chemin principal de détection et de consultation dans l'architecture de démonstration.</text>
</svg>
